# Blender 3.4.1
# www.blender.org
mtllib 3dX.mtl
o Cube
v 1.000000 2.000000 1.000000
v 1.000000 0.000000 1.000000
v -1.000000 2.000000 1.000000
v -1.000000 0.000000 1.000000
v 0.600000 2.000000 1.000000
v 0.200000 1.600000 1.000000
v -0.200000 1.600000 1.000000
v -0.600000 2.000000 1.000000
v -0.600000 0.000000 1.000000
v -0.200000 0.400000 1.000000
v 0.200000 0.400000 1.000000
v 0.600000 0.000000 1.000000
v -1.000000 0.400000 1.000000
v -0.600000 0.800000 1.000000
v -0.600000 1.200000 1.000000
v -1.000000 1.600000 1.000000
v 1.000000 1.600000 1.000000
v 0.600000 1.200000 1.000000
v 0.600000 0.800000 1.000000
v 1.000000 0.400000 1.000000
v -0.200000 1.000000 1.000000
v 0.200000 1.000000 1.000000
v 0.400000 1.000000 1.000000
v -0.400000 1.000000 1.000000
v 0.600000 1.600000 1.000000
v 0.600000 0.400000 1.000000
v 0.200000 1.200000 1.000000
v 0.200000 0.800000 1.000000
v -0.200000 1.200000 1.000000
v -0.200000 0.800000 1.000000
v -0.600000 1.600000 1.000000
v -0.600000 0.400000 1.000000
v 0.000000 1.400000 1.000000
v 0.000000 0.600000 1.000000
v 0.000000 1.000000 1.000000
v 0.000000 0.800000 1.000000
v 0.000000 1.200000 1.000000
v 1.000000 2.000000 -1.000000
v 1.000000 0.000000 -1.000000
v -1.000000 2.000000 -1.000000
v -1.000000 0.000000 -1.000000
v 0.600000 2.000000 -1.000000
v 0.200000 1.600000 -1.000000
v -0.200000 1.600000 -1.000000
v -0.600000 2.000000 -1.000000
v -0.600000 0.000000 -1.000000
v -0.200000 0.400000 -1.000000
v 0.200000 0.400000 -1.000000
v 0.600000 0.000000 -1.000000
v -1.000000 0.400000 -1.000000
v -0.600000 0.800000 -1.000000
v -0.600000 1.200000 -1.000000
v -1.000000 1.600000 -1.000000
v 1.000000 1.600000 -1.000000
v 0.600000 1.200000 -1.000000
v 0.600000 0.800000 -1.000000
v 1.000000 0.400000 -1.000000
v -0.200000 1.000000 -1.000000
v 0.200000 1.000000 -1.000000
v 0.400000 1.000000 -1.000000
v -0.400000 1.000000 -1.000000
v 0.600000 1.600000 -1.000000
v 0.600000 0.400000 -1.000000
v 0.200000 1.200000 -1.000000
v 0.200000 0.800000 -1.000000
v -0.200000 1.200000 -1.000000
v -0.200000 0.800000 -1.000000
v -0.600000 1.600000 -1.000000
v -0.600000 0.400000 -1.000000
v 0.000000 1.400000 -1.000000
v 0.000000 0.600000 -1.000000
v 0.000000 1.000000 -1.000000
v 0.000000 0.800000 -1.000000
v 0.000000 1.200000 -1.000000
vn -0.0000 -0.0000 -1.0000
vn -0.0000 -0.0000 1.0000
vn -0.0000 -1.0000 -0.0000
vn -0.7071 0.7071 -0.0000
vn 0.7071 -0.7071 -0.0000
vn -0.7071 -0.7071 -0.0000
vn 1.0000 -0.0000 -0.0000
vn -0.0000 1.0000 -0.0000
vn -1.0000 -0.0000 -0.0000
vn 0.7071 0.7071 -0.0000
vt 0.625000 0.750000
vt 0.375000 0.750000
vt 0.625000 1.000000
vt 0.375000 1.000000
vt 0.625000 0.800000
vt 0.575000 0.850000
vt 0.575000 0.900000
vt 0.625000 0.900000
vt 0.625000 0.950000
vt 0.375000 0.950000
vt 0.425000 0.900000
vt 0.425000 0.850000
vt 0.375000 0.850000
vt 0.375000 0.800000
vt 0.425000 1.000000
vt 0.475000 1.000000
vt 0.475000 0.950000
vt 0.525000 0.950000
vt 0.575000 1.000000
vt 0.575000 0.750000
vt 0.525000 0.750000
vt 0.525000 0.800000
vt 0.475000 0.800000
vt 0.425000 0.750000
vt 0.500000 0.900000
vt 0.500000 0.850000
vt 0.500000 0.800000
vt 0.500000 0.950000
vt 0.575000 0.800000
vt 0.425000 0.800000
vt 0.525000 0.850000
vt 0.475000 0.850000
vt 0.525000 0.900000
vt 0.475000 0.900000
vt 0.575000 0.950000
vt 0.425000 0.950000
vt 0.575000 0.875000
vt 0.425000 0.875000
vt 0.500000 0.875000
vt 0.475000 0.875000
vt 0.525000 0.875000
vt 0.625000 0.750000
vt 0.375000 0.750000
vt 0.625000 1.000000
vt 0.375000 1.000000
vt 0.625000 0.800000
vt 0.575000 0.850000
vt 0.575000 0.900000
vt 0.625000 0.900000
vt 0.625000 0.950000
vt 0.375000 0.950000
vt 0.425000 0.900000
vt 0.425000 0.850000
vt 0.375000 0.850000
vt 0.375000 0.800000
vt 0.425000 1.000000
vt 0.475000 1.000000
vt 0.475000 0.950000
vt 0.525000 0.950000
vt 0.575000 1.000000
vt 0.575000 0.750000
vt 0.525000 0.750000
vt 0.525000 0.800000
vt 0.475000 0.800000
vt 0.425000 0.750000
vt 0.500000 0.900000
vt 0.500000 0.850000
vt 0.500000 0.800000
vt 0.500000 0.950000
vt 0.575000 0.800000
vt 0.425000 0.800000
vt 0.525000 0.850000
vt 0.475000 0.850000
vt 0.525000 0.900000
vt 0.475000 0.900000
vt 0.575000 0.950000
vt 0.425000 0.950000
vt 0.575000 0.875000
vt 0.425000 0.875000
vt 0.500000 0.875000
vt 0.475000 0.875000
vt 0.525000 0.875000
s 0
usemtl Material
f 31/35/1 16/19/1 3/3/1 8/9/1
f 17/20/1 25/29/1 5/5/1 1/1/1
f 25/29/1 6/6/1 5/5/1
f 7/8/1 31/35/1 8/9/1
f 10/11/1 9/10/1 32/36/1
f 10/11/1 32/36/1 14/17/1 30/34/1
f 21/25/1 24/28/1 15/18/1 29/33/1
f 29/33/1 15/18/1 31/35/1 7/7/1
f 34/38/1 10/11/1 30/34/1 36/40/1
f 35/39/1 21/25/1 29/33/1 37/41/1
f 37/41/1 29/33/1 7/7/1 33/37/1
f 12/14/1 11/13/1 26/30/1
f 26/30/1 11/12/1 28/32/1 19/23/1
f 23/27/1 22/26/1 27/31/1 18/22/1
f 18/22/1 27/31/1 6/6/1 25/29/1
f 2/2/1 12/14/1 26/30/1 20/24/1
f 20/24/1 26/30/1 19/23/1
f 18/21/1 25/29/1 17/20/1
f 19/23/1 28/32/1 22/26/1 23/27/1
f 36/40/1 30/34/1 21/25/1 35/39/1
f 30/34/1 14/17/1 24/28/1 21/25/1
f 9/10/1 4/4/1 13/15/1 32/36/1
f 32/36/1 13/15/1 14/16/1
f 15/18/1 16/19/1 31/35/1
f 28/32/1 36/40/1 35/39/1 22/26/1
f 27/31/1 37/41/1 33/37/1 6/6/1
f 22/26/1 35/39/1 37/41/1 27/31/1
f 11/12/1 34/38/1 36/40/1 28/32/1
f 68/76/2 45/50/2 40/44/2 53/60/2
f 54/61/2 38/42/2 42/46/2 62/70/2
f 62/70/2 42/46/2 43/47/2
f 44/49/2 45/50/2 68/76/2
f 47/52/2 69/77/2 46/51/2
f 47/52/2 67/75/2 51/58/2 69/77/2
f 58/66/2 66/74/2 52/59/2 61/69/2
f 66/74/2 44/48/2 68/76/2 52/59/2
f 71/79/2 73/81/2 67/75/2 47/52/2
f 72/80/2 74/82/2 66/74/2 58/66/2
f 74/82/2 70/78/2 44/48/2 66/74/2
f 49/55/2 63/71/2 48/54/2
f 63/71/2 56/64/2 65/73/2 48/53/2
f 60/68/2 55/63/2 64/72/2 59/67/2
f 55/63/2 62/70/2 43/47/2 64/72/2
f 39/43/2 57/65/2 63/71/2 49/55/2
f 57/65/2 56/64/2 63/71/2
f 55/62/2 54/61/2 62/70/2
f 56/64/2 60/68/2 59/67/2 65/73/2
f 73/81/2 72/80/2 58/66/2 67/75/2
f 67/75/2 58/66/2 61/69/2 51/58/2
f 46/51/2 69/77/2 50/56/2 41/45/2
f 69/77/2 51/57/2 50/56/2
f 52/59/2 68/76/2 53/60/2
f 65/73/2 59/67/2 72/80/2 73/81/2
f 64/72/2 43/47/2 70/78/2 74/82/2
f 59/67/2 64/72/2 74/82/2 72/80/2
f 48/53/2 65/73/2 73/81/2 71/79/2
f 1/1/3 5/5/3 42/46/3 38/42/3
f 10/11/4 34/38/4 71/79/4 47/52/4
f 18/21/4 17/20/4 54/61/4 55/62/4
f 5/5/5 6/6/5 43/47/5 42/46/5
f 19/23/6 23/27/6 60/68/6 56/64/6
f 33/37/6 7/7/6 44/48/6 70/78/6
f 20/24/6 19/23/6 56/64/6 57/65/6
f 13/15/7 4/4/7 41/45/7 50/56/7
f 7/8/6 8/9/6 45/50/6 44/49/6
f 3/3/7 16/19/7 53/60/7 40/44/7
f 14/16/5 13/15/5 50/56/5 51/57/5
f 4/4/8 9/10/8 46/51/8 41/45/8
f 2/2/9 20/24/9 57/65/9 39/43/9
f 15/18/10 24/28/10 61/69/10 52/59/10
f 9/10/4 10/11/4 47/52/4 46/51/4
f 23/27/4 18/22/4 55/63/4 60/68/4
f 8/9/3 3/3/3 40/44/3 45/50/3
f 16/19/10 15/18/10 52/59/10 53/60/10
f 34/38/10 11/12/10 48/53/10 71/79/10
f 24/28/5 14/17/5 51/58/5 61/69/5
f 12/14/8 2/2/8 39/43/8 49/55/8
f 6/6/5 33/37/5 70/78/5 43/47/5
f 17/20/9 1/1/9 38/42/9 54/61/9
f 11/13/10 12/14/10 49/55/10 48/54/10
