# Blender 3.4.1
# www.blender.org
mtllib arrow.mtl
o Cube
v 0.500000 1.000000 -0.300000
v 0.500000 0.000000 -0.300000
v 0.500000 1.000000 0.300000
v 0.500000 0.000000 0.300000
v -0.500000 1.000000 -0.300000
v -0.500000 0.000000 -0.300000
v -0.500000 1.000000 0.300000
v -0.500000 0.000000 0.300000
v 0.500000 3.000000 -1.500000
v 0.500000 3.000000 -2.100000
v -0.500000 3.000000 -1.500000
v -0.500000 3.000000 -2.100000
v 0.500000 3.000000 1.500000
v 0.500000 3.000000 2.100000
v -0.500000 3.000000 1.500000
v -0.500000 3.000000 2.100000
v 0.500000 5.000000 -0.300000
v 0.500000 5.000000 0.300000
v -0.500000 5.000000 -0.300000
v -0.500000 5.000000 0.300000
vn -1.0000 -0.0000 -0.0000
vn -0.0000 -0.5145 0.8575
vn -0.0000 -1.0000 -0.0000
vn 1.0000 -0.0000 -0.0000
vn -0.0000 1.0000 -0.0000
vn -0.0000 -0.5145 -0.8575
vn -0.0000 0.5145 0.8575
vn -0.0000 0.5145 -0.8575
vn -0.0000 -0.0000 -1.0000
vn -0.0000 -0.0000 1.0000
vt 0.625000 0.500000
vt 0.375000 0.500000
vt 0.625000 0.750000
vt 0.375000 0.750000
vt 0.625000 0.250000
vt 0.875000 0.500000
vt 0.375000 0.250000
vt 0.125000 0.500000
vt 0.625000 0.000000
vt 0.875000 0.750000
vt 0.125000 0.750000
vt 0.375000 0.000000
vt 0.625000 0.500000
vt 0.375000 0.500000
vt 0.625000 0.250000
vt 0.875000 0.500000
vt 0.375000 0.250000
vt 0.125000 0.500000
vt 0.625000 0.750000
vt 0.375000 0.750000
vt 0.625000 1.000000
vt 0.875000 0.750000
vt 0.625000 0.000000
vt 0.125000 0.750000
vt 0.375000 1.000000
vt 0.375000 0.000000
vt 0.625000 0.500000
vt 0.625000 0.750000
vt 0.625000 0.250000
vt 0.875000 0.500000
vt 0.625000 0.000000
vt 0.875000 0.750000
s 0
usemtl Material
f 5/5/1 7/9/1 20/31/1 19/29/1
f 8/11/2 4/4/2 14/20/2 16/24/2
f 8/12/1 7/9/1 5/5/1 6/7/1
f 6/8/3 2/2/3 4/4/3 8/11/3
f 2/2/4 1/1/4 3/3/4 4/4/4
f 6/7/1 5/5/1 11/15/1 12/17/1
f 12/17/5 11/15/5 9/13/5 10/14/5
f 2/2/6 6/8/6 12/18/6 10/14/6
f 5/6/7 1/1/7 9/13/7 11/16/7
f 1/1/4 2/2/4 10/14/4 9/13/4
f 14/20/5 13/19/5 15/21/5 16/25/5
f 3/3/8 7/10/8 15/22/8 13/19/8
f 4/4/4 3/3/4 13/19/4 14/20/4
f 7/9/1 8/12/1 16/26/1 15/23/1
f 17/27/5 19/30/5 20/32/5 18/28/5
f 3/3/4 1/1/4 17/27/4 18/28/4
f 1/1/9 5/6/9 19/30/9 17/27/9
f 7/10/10 3/3/10 18/28/10 20/32/10
